#!OML:ASF E:\motion texture\Top Level 1\Subject 1\Session 1\male.ASF
:FULLY-SPECIFIED
:DEGREES
436
root -12.7577 17.9364 1.20894 607.601 -89.148 -601.811
lowerback -0.762553 -3.60168 -1.13498
upperback -1.05276 -4.80741 1.95643
thorax -0.391695 -2.39926 2.60906
lowerneck -12.3945 -9.76739 -12.289
upperneck 12.8459 -12.3979 8.54875
head 7.27621 -5.92715 3.39702
rclavicle -3.90115e-015 7.95139e-016
rhumerus -26.8604 -6.53377 -80.2744
rradius 29.2905
rwrist 11.0643
rhand -15.1671 -26.9708
rfingers 7.12502
rthumb 11.0036 -416.662
lclavicle -3.90115e-015 7.95139e-016
lhumerus -14.8729 2.25425 81.565
lradius 30.2708
lwrist -19.1234
lhand -15.9851 24.5855
lfingers 7.12502
lthumb 10.2145 54.3175
rfemur -32.0069 -2.36783 17.0589
rtibia 27.5392
rfoot -4.65923 -18.4702
rtoes 5.97171
lfemur -1.98704 -4.10442 -22.8399
ltibia 15.698
lfoot -12.8873 -0.776409
ltoes -4.25696
437
root -12.8861 17.9289 1.202 610.73 -89.1272 -604.832
lowerback -0.813105 -3.6495 -1.21217
upperback -1.08649 -4.87099 1.98542
thorax -0.385755 -2.43064 2.67852
lowerneck -12.4701 -9.75429 -12.2709
upperneck 12.9 -12.379 8.55182
head 7.30374 -5.91476 3.39416
rclavicle 1.11568e-014 -3.57812e-015
rhumerus -26.606 -5.93298 -80.7309
rradius 29.7722
rwrist 10.8096
rhand -15.2136 -26.7661
rfingers 7.12502
rthumb 10.9588 -416.46
lclavicle 1.11568e-014 -3.57812e-015
lhumerus -14.4311 1.25025 81.691
lradius 31.2336
lwrist -18.5269
lhand -16.0308 24.5431
lfingers 7.12502
lthumb 10.1705 54.2773
rfemur -32.0472 -2.12811 17.0454
rtibia 26.216
rfoot -4.52634 -18.2817
rtoes 5.82722
lfemur -1.69205 -4.07514 -22.8661
ltibia 15.8005
lfoot -13.0554 -0.866267
ltoes -4.72759
438
root -13.0158 17.9218 1.19428 613.622 -89.113 -607.617
lowerback -0.865946 -3.69396 -1.27696
upperback -1.11976 -4.93011 2.01546
thorax -0.379054 -2.45987 2.74197
lowerneck -12.5438 -9.74419 -12.2563
upperneck 12.9479 -12.3636 8.55726
head 7.32974 -5.90408 3.39228
rclavicle 6.31141e-015 -3.97569e-016
rhumerus -26.3735 -5.35078 -81.1695
rradius 30.24
rwrist 10.5915
rhand -15.25 -26.5513
rfingers 7.12502
rthumb 10.9237 -416.247
lclavicle 6.31141e-015 -3.97569e-016
lhumerus -14.0365 0.302302 81.7996
lradius 32.2101
lwrist -17.9698
lhand -16.0762 24.4868
lfingers 7.12502
lthumb 10.1267 54.2231
rfemur -32.068 -1.86705 17.0376
rtibia 24.9757
rfoot -4.36603 -18.103
rtoes 5.71032
lfemur -1.40997 -4.04905 -22.8771
ltibia 15.929
lfoot -13.2038 -0.961699
ltoes -5.2313
439
root -13.1469 17.9152 1.18581 616.451 -89.1052 -610.339
lowerback -0.919419 -3.73501 -1.32991
upperback -1.15205 -4.98472 2.04608
thorax -0.372026 -2.48693 2.79935
lowerneck -12.6175 -9.73749 -12.2449
upperneck 12.991 -12.3522 8.56457
head 7.35493 -5.89526 3.39101
rclavicle 3.68746e-014 -1.23246e-014
rhumerus -26.1601 -4.79259 -81.5886
rradius 30.6886
rwrist 10.4102
rhand -15.2815 -26.3241
rfingers 7.12502
rthumb 10.8932 -416.022
lclavicle 3.68746e-014 -1.23246e-014
lhumerus -13.6891 -0.592781 81.8961
lradius 33.1984
lwrist -17.4495
lhand -16.1271 24.4171
lfingers 7.12502
lthumb 10.0776 54.1557
rfemur -32.0694 -1.58872 17.0351
rtibia 23.8239
rfoot -4.18148 -17.9366
rtoes 5.63527
lfemur -1.14139 -4.02663 -22.8737
ltibia 16.0866
lfoot -13.3308 -1.06462
ltoes -5.76776
440
root -13.2793 17.9091 1.17657 619.246 -89.1037 -613.027
lowerback -0.974459 -3.77305 -1.37089
upperback -1.18388 -5.03536 2.0776
thorax -0.364673 -2.51209 2.85087
lowerneck -12.6919 -9.73345 -12.2363
upperneck 13.0307 -12.3435 8.57261
head 7.37968 -5.8878 3.39004
rclavicle 6.85807e-015 1.03368e-014
rhumerus -25.9665 -4.2593 -81.9887
rradius 31.1167
rwrist 10.2637
rhand -15.3056 -26.0866
rfingers 7.12502
rthumb 10.87 -415.785
lclavicle 6.85807e-015 1.03368e-014
lhumerus -13.3908 -1.4372 81.9846
lradius 34.196
lwrist -16.964
lhand -16.1697 24.3423
lfingers 7.12502
lthumb 10.0364 54.0829
rfemur -32.0544 -1.29519 17.0392
rtibia 22.765
rfoot -3.97787 -17.7823
rtoes 5.60304
lfemur -0.890724 -4.0055 -22.8555
ltibia 16.2785
lfoot -13.435 -1.17603
ltoes -6.34352
441
root -13.4131 17.9037 1.16655 622.178 -89.1081 -615.853
lowerback -1.02921 -3.80869 -1.40165
upperback -1.21592 -5.08287 2.1101
thorax -0.358565 -2.53573 2.89775
lowerneck -12.7652 -9.73198 -12.2305
upperneck 13.0657 -12.3379 8.58182
head 7.40332 -5.88178 3.38957
rclavicle -2.19657e-014 7.55382e-015
rhumerus -25.7928 -3.75055 -82.3697
rradius 31.523
rwrist 10.1475
rhand -15.3212 -25.8432
rfingers 7.12502
rthumb 10.855 -415.543
lclavicle -2.19657e-014 7.55382e-015
lhumerus -13.1423 -2.23378 82.0688
lradius 35.1981
lwrist -16.5138
lhand -16.2135 24.2547
lfingers 7.12502
lthumb 9.9942 53.9975
rfemur -32.0234 -0.988909 17.0493
rtibia 21.8011
rfoot -3.76496 -17.6384
rtoes 5.61462
lfemur -0.660661 -3.9865 -22.8228
ltibia 16.5089
lfoot -13.5133 -1.29868
ltoes -6.95877
442
root -13.5484 17.899 1.15578 625.296 -89.1186 -618.867
lowerback -1.08264 -3.84082 -1.42108
upperback -1.24691 -5.12579 2.14351
thorax -0.3532 -2.55715 2.93937
lowerneck -12.837 -9.73367 -12.2274
upperneck 13.0956 -12.3358 8.59135
head 7.42563 -5.87759 3.38925
rclavicle -5.33737e-014 1.43125e-014
rhumerus -25.639 -3.2693 -82.7305
rradius 31.907
rwrist 10.0576
rhand -15.3341 -25.5943
rfingers 7.12502
rthumb 10.8425 -415.294
lclavicle -5.33737e-014 1.43125e-014
lhumerus -12.9431 -2.98543 82.154
lradius 36.2029
lwrist -16.0948
lhand -16.2533 24.1586
lfingers 7.12502
lthumb 9.95576 53.9031
rfemur -31.9749 -0.671996 17.0672
rtibia 20.9342
rfoot -3.54709 -17.5024
rtoes 5.66505
lfemur -0.451482 -3.96787 -22.7744
ltibia 16.7817
lfoot -13.5627 -1.43504
ltoes -7.60682
443
root -13.6851 17.8951 1.14427 628.621 -89.1343 -622.092
lowerback -1.13471 -3.86968 -1.42963
upperback -1.27708 -5.16443 2.17774
thorax -0.348829 -2.57651 2.9759
lowerneck -12.9057 -9.73791 -12.2274
upperneck 13.1199 -12.3366 8.60203
head 7.4462 -5.87493 3.38955
rclavicle 2.56432e-014 -1.47101e-014
rhumerus -25.5053 -2.81626 -83.0714
rradius 32.2678
rwrist 9.99157
rhand -15.3436 -25.3399
rfingers 7.12502
rthumb 10.8333 -415.041
lclavicle 2.56432e-014 -1.47101e-014
lhumerus -12.7951 -3.69502 82.2431
lradius 37.2071
lwrist -15.7065
lhand -16.2896 24.0548
lfingers 7.12502
lthumb 9.92078 53.8011
rfemur -31.9094 -0.348906 17.0942
rtibia 20.1631
rfoot -3.32574 -17.3678
rtoes 5.74895
lfemur -0.265822 -3.94733 -22.7105
ltibia 17.1008
lfoot -13.5803 -1.58686
ltoes -8.29477
444
root -13.8233 17.892 1.13204 632.232 -89.1557 -625.607
lowerback -1.18588 -3.89536 -1.42648
upperback -1.30569 -5.19896 2.21331
thorax -0.344463 -2.59389 3.00736
lowerneck -12.9742 -9.74496 -12.2307
upperneck 13.1411 -12.3404 8.61243
head 7.4662 -5.8738 3.38988
rclavicle -3.42904e-015 -5.96354e-015
rhumerus -25.3898 -2.39106 -83.3925
rradius 32.6031
rwrist 9.94647
rhand -15.3468 -25.0874
rfingers 7.12502
rthumb 10.8302 -414.788
lclavicle -3.42904e-015 -5.96354e-015
lhumerus -12.697 -4.36434 82.3393
lradius 38.2059
lwrist -15.3489
lhand -16.3276 23.9452
lfingers 7.12502
lthumb 9.88413 53.6932
rfemur -31.8259 -0.0242806 17.1336
rtibia 19.4857
rfoot -3.10223 -17.2323
rtoes 5.89329
lfemur -0.106042 -3.9234 -22.6294
ltibia 17.4692
lfoot -13.562 -1.75632
ltoes -9.01216
445
root -13.963 17.8897 1.1191 636.237 -89.1829 -629.521
lowerback -1.23524 -3.91754 -1.41084
upperback -1.3326 -5.22898 2.25018
thorax -0.340602 -2.60912 3.03334
lowerneck -13.041 -9.75467 -12.2368
upperneck 13.1579 -12.3472 8.62354
head 7.48508 -5.87422 3.39058
rclavicle -1.59028e-014 -2.78299e-015
rhumerus -25.2937 -1.99471 -83.6941
rradius 32.9144
rwrist 9.91801
rhand -15.3459 -24.8351
rfingers 7.12502
rthumb 10.8311 -414.536
lclavicle -1.59028e-014 -2.78299e-015
lhumerus -12.6496 -4.99795 82.445
lradius 39.197
lwrist -15.0194
lhand -16.3624 23.8297
lfingers 7.12502
lthumb 9.85049 53.5793
rfemur -31.7245 0.298122 17.1885
rtibia 18.8999
rfoot -2.87333 -17.0926
rtoes 6.09709
lfemur 0.0256866 -3.89471 -22.5292
ltibia 17.8896
lfoot -13.5027 -1.9461
ltoes -9.7498
446
root -14.1042 17.8883 1.10546 640.842 -89.2174 -634.041
lowerback -1.28277 -3.93624 -1.38019
upperback -1.35778 -5.25455 2.28918
thorax -0.337373 -2.62224 3.05333
lowerneck -13.1066 -9.76723 -12.2458
upperneck 13.1716 -12.357 8.63391
head 7.50319 -5.8763 3.39111
rclavicle 3.06128e-014 7.55382e-015
rhumerus -25.2161 -1.6269 -83.9757
rradius 33.2001
rwrist 9.9031
rhand -15.3395 -24.589
rfingers 7.12502
rthumb 10.8373 -414.289
lclavicle 3.06128e-014 7.55382e-015
lhumerus -12.6522 -5.59959 82.5631
lradius 40.1754
lwrist -14.715
lhand -16.3946 23.7125
lfingers 7.12502
lthumb 9.8195 53.4635
rfemur -31.6046 0.613165 17.2641
rtibia 18.4028
rfoot -2.64076 -16.9426
rtoes 6.35938
lfemur 0.127413 -3.86192 -22.4072
ltibia 18.3638
lfoot -13.3968 -2.15676
ltoes -10.5029
447
root -14.2469 17.8877 1.09115 646.265 -89.2583 -639.383
lowerback -1.32894 -3.95123 -1.33393
upperback -1.38086 -5.2754 2.33056
thorax -0.334219 -2.63313 3.06721
lowerneck -13.1694 -9.78237 -12.2577
upperneck 13.1803 -12.3698 8.6447
head 7.51972 -5.87994 3.39198
rclavicle -6.45056e-014 7.95139e-015
rhumerus -25.1566 -1.28725 -84.2376
rradius 33.4608
rwrist 9.89843
rhand -15.3282 -24.3501
rfingers 7.12502
rthumb 10.8482 -414.05
lclavicle -6.45056e-014 7.95139e-015
lhumerus -12.7041 -6.17147 82.6958
lradius 41.1376
lwrist -14.4346
lhand -16.4264 23.5903
lfingers 7.12502
lthumb 9.78881 53.3428
rfemur -31.4662 0.917404 17.3637
rtibia 17.9917
rfoot -2.40614 -16.7811
rtoes 6.67253
lfemur 0.197448 -3.82516 -22.2619
ltibia 18.8921
lfoot -13.2378 -2.38766
ltoes -11.2668
448
root -14.3911 17.8882 1.07616 653.091 -89.3047 -646.135
lowerback -1.37105 -3.9629 -1.27012
upperback -1.40344 -5.29211 2.37531
thorax -0.33433 -2.64207 3.07519
lowerneck -13.227 -9.80009 -12.2729
upperneck 13.1849 -12.3855 8.65479
head 7.53452 -5.88537 3.39294
rclavicle -2.65874e-014 2.70347e-014
rhumerus -25.1175 -0.975552 -84.4788
rradius 33.6969
rwrist 9.90122
rhand -15.3114 -24.1209
rfingers 7.12502
rthumb 10.8644 -413.82
lclavicle -2.65874e-014 2.70347e-014
lhumerus -12.808 -6.71794 82.8454
lradius 42.0807
lwrist -14.1782
lhand -16.4535 23.4628
lfingers 7.12502
lthumb 9.76266 53.2165
rfemur -31.3086 1.20855 17.4905
rtibia 17.663
rfoot -2.17839 -16.6091
rtoes 7.03425
lfemur 0.233101 -3.78635 -22.0905
ltibia 19.4781
lfoot -13.0218 -2.63909
ltoes -12.037
449
root -14.5368 17.8894 1.06048 661.566 -89.3537 -654.541
lowerback -1.41524 -3.97036 -1.188
upperback -1.42301 -5.30353 2.42346
thorax -0.331845 -2.64856 3.07634
lowerneck -13.2815 -9.82026 -12.2914
upperneck 13.1849 -12.4041 8.66578
head 7.54786 -5.89231 3.39445
rclavicle -1.58531e-014 -3.18055e-015
rhumerus -25.0937 -0.691879 -84.7005
rradius 33.9064
rwrist 9.911
rhand -15.2925 -23.8996
rfingers 7.12502
rthumb 10.8827 -413.598
lclavicle -1.58531e-014 -3.18055e-015
lhumerus -12.9584 -7.24021 83.0119
lradius 42.9994
lwrist -13.9446
lhand -16.4791 23.3324
lfingers 7.12502
lthumb 9.73798 53.0873
rfemur -31.134 1.48523 17.6482
rtibia 17.4141
rfoot -1.95468 -16.4205
rtoes 7.43258
lfemur 0.231905 -3.74554 -21.8918
ltibia 20.1213
lfoot -12.7431 -2.909
ltoes -12.7753
450
root -14.6839 17.8915 1.04416 672.449 -89.3982 -665.361
lowerback -1.45683 -3.97398 -1.08728
upperback -1.44159 -5.31018 2.47595
thorax -0.331377 -2.65282 3.07188
lowerneck -13.3308 -9.84264 -12.3131
upperneck 13.1815 -12.4253 8.67565
head 7.55965 -5.90083 3.39596
rclavicle -5.85918e-014 1.59028e-015
rhumerus -25.089 -0.43463 -84.9016
rradius 34.0914
rwrist 9.925
rhand -15.268 -23.6879
rfingers 7.12502
rthumb 10.9063 -413.385
lclavicle -5.85918e-014 1.59028e-015
lhumerus -13.1584 -7.73993 83.198
lradius 43.8906
lwrist -13.7353
lhand -16.5019 23.1953
lfingers 7.12502
lthumb 9.71598 52.9512
rfemur -30.9399 1.74534 17.8384
rtibia 17.2393
rfoot -1.74585 -16.2191
rtoes 7.88698
lfemur 0.192452 -3.70113 -21.6647
ltibia 20.8254
lfoot -12.3999 -3.19528
ltoes -13.4974
